<svg width="181" height="185" viewBox="0 0 181 185" fill="none" xmlns="http://www.w3.org/2000/svg">
<path d="M73.3902 167.333C112.081 177.701 152.067 153.723 162.748 113.86C173.429 73.9973 150.789 33.239 112.099 22.8718C73.4079 12.5047 33.4219 36.4823 22.7406 76.3452C12.0594 116.208 34.6995 156.966 73.3902 167.333Z" fill="#20463E" stroke="#0DA453" stroke-width="2"/>
<path d="M68.779 162.722C107.47 173.089 147.456 149.112 158.137 109.249C168.818 69.3861 146.178 28.6278 107.487 18.2606C68.7967 7.89348 28.8107 31.8711 18.1294 71.734C7.44822 111.597 30.0883 152.355 68.779 162.722Z" fill="#CFFFD0" stroke="#0DA453" stroke-width="2"/>
<path d="M72.3592 149.36C103.677 157.752 136.073 138.145 144.775 105.669C153.477 73.1924 135.225 40.0144 103.907 31.6229C72.5892 23.2313 40.1934 42.8382 31.4914 75.3144C22.7895 107.791 41.0416 140.969 72.3592 149.36Z" fill="#60E9A0" stroke="#2E9C61" stroke-width="2"/>
<path fill-rule="evenodd" clip-rule="evenodd" d="M130.934 49.4372C124.6 43.7918 116.938 39.5254 108.259 37.1999C77.5105 28.9608 45.6373 48.2056 37.0686 80.1844C31.5393 100.82 37.0652 121.716 49.9432 136.157C33.8344 121.801 26.3072 98.5261 32.4574 75.5732C41.0261 43.5944 72.8993 24.3496 103.648 32.5887C114.555 35.5112 123.855 41.4991 130.934 49.4372Z" fill="#32AF6C"/>
<circle cx="125.694" cy="117.516" r="3.27411" transform="rotate(-24.5189 125.694 117.516)" fill="#32C275"/>
<circle cx="138.881" cy="104.304" r="3.27411" transform="rotate(-24.5189 138.881 104.304)" fill="#32C275"/>
<circle cx="122.917" cy="102.974" r="3.27411" transform="rotate(-24.5189 122.917 102.974)" fill="#32C275"/>
<circle cx="130.517" cy="107.41" r="2.28018" transform="rotate(-24.5189 130.517 107.41)" fill="#32C275"/>
<circle cx="129.631" cy="97.4059" r="2.28018" transform="rotate(-24.5189 129.631 97.4059)" fill="#32C275"/>
<circle cx="140.045" cy="95.1613" r="2.28018" transform="rotate(-24.5189 140.045 95.1613)" fill="#32C275"/>
<circle cx="141.391" cy="80.9244" r="2.28018" transform="rotate(-24.5189 141.391 80.9244)" fill="#32C275"/>
<circle cx="134.334" cy="90.2482" r="2.28018" transform="rotate(-24.5189 134.334 90.2482)" fill="#32C275"/>
<circle cx="136.198" cy="113.495" r="2.28018" transform="rotate(-24.5189 136.198 113.495)" fill="#32C275"/>
<circle cx="125.984" cy="126.88" r="2.10733" transform="rotate(-24.5189 125.984 126.88)" fill="#32C275"/>
<circle cx="131.689" cy="120.819" r="1.28939" transform="rotate(-24.5189 131.689 120.819)" fill="#32C275"/>
<circle cx="122.152" cy="110.456" r="1.75399" transform="rotate(-24.5189 122.152 110.456)" fill="#32C275"/>
<circle cx="135.49" cy="82.78" r="1.75399" transform="rotate(-24.5189 135.49 82.78)" fill="#32C275"/>
<circle cx="140.754" cy="89.2482" r="1.75399" transform="rotate(-24.5189 140.754 89.2482)" fill="#32C275"/>
<circle cx="119.904" cy="122.855" r="1.75399" transform="rotate(-24.5189 119.904 122.855)" fill="#32C275"/>
<circle cx="118.912" cy="133.076" r="1.75399" transform="rotate(-24.5189 118.912 133.076)" fill="#32C275"/>
<path d="M72 24C50.2919 29.8451 32.8064 45.6195 25 66" stroke="white" stroke-width="2" stroke-linecap="round" stroke-linejoin="round"/>
<path d="M124 148C132.022 142.529 138.85 135.363 144 127" stroke="white" stroke-width="2" stroke-linecap="round" stroke-linejoin="round"/>
<path d="M49 35C49 35 41.8 39.8 37 47" stroke="white" stroke-width="2" stroke-linecap="round" stroke-linejoin="round"/>
<path d="M58 47C58 47 51.4 51.4 47 58" stroke="#0F8244" stroke-width="2" stroke-linecap="round" stroke-linejoin="round"/>
<path d="M90.0132 126.65C82.9932 126.65 76.7532 125.133 71.2932 122.1C65.9199 118.98 61.6732 114.69 58.5532 109.23C55.5199 103.77 54.0032 97.53 54.0032 90.51C54.0032 83.4033 55.4332 77.1633 58.2932 71.79C61.2399 66.33 65.2699 62.04 70.3832 58.92C75.4966 55.8 81.3899 54.24 88.0632 54.24C94.6499 54.24 100.37 55.7567 105.223 58.79C110.163 61.7367 113.977 65.8533 116.663 71.14C119.35 76.4267 120.693 82.45 120.693 89.21C120.693 90.5967 120.26 91.7233 119.393 92.59C118.527 93.37 117.4 93.76 116.013 93.76H60.7632V85.44H117.053L111.463 89.47C111.55 84.4433 110.64 79.9367 108.733 75.95C106.827 71.9633 104.097 68.8433 100.543 66.59C97.0766 64.3367 92.9166 63.21 88.0632 63.21C83.1232 63.21 78.7899 64.38 75.0632 66.72C71.3366 69.06 68.4332 72.31 66.3532 76.47C64.3599 80.5433 63.3632 85.2233 63.3632 90.51C63.3632 95.7967 64.4899 100.477 66.7432 104.55C69.0832 108.623 72.2466 111.83 76.2332 114.17C80.2199 116.51 84.8132 117.68 90.0132 117.68C93.1332 117.68 96.2532 117.16 99.3732 116.12C102.58 114.993 105.137 113.607 107.043 111.96C107.997 111.18 109.08 110.79 110.293 110.79C111.507 110.703 112.547 111.007 113.413 111.7C114.54 112.74 115.103 113.867 115.103 115.08C115.19 116.293 114.713 117.333 113.673 118.2C110.813 120.627 107.173 122.663 102.753 124.31C98.3332 125.87 94.0866 126.65 90.0132 126.65Z" fill="white"/>
</svg>
